<svg xmlns="http://www.w3.org/2000/svg" width="800" height="500" viewBox="0 0 800 500" fill="none">
  <line x1="0" y1="100" x2="800" y2="100" stroke="#e8c547" stroke-width="1" opacity="0.20"/>
  <line x1="0" y1="200" x2="800" y2="200" stroke="#e8c547" stroke-width="1" opacity="0.20"/>
  <line x1="0" y1="300" x2="800" y2="300" stroke="#e8c547" stroke-width="1" opacity="0.20"/>
  <line x1="0" y1="400" x2="800" y2="400" stroke="#e8c547" stroke-width="1" opacity="0.20"/>
  <line x1="100" y1="0" x2="100" y2="500" stroke="#e8c547" stroke-width="1" opacity="0.20"/>
  <line x1="200" y1="0" x2="200" y2="500" stroke="#e8c547" stroke-width="1" opacity="0.20"/>
  <line x1="300" y1="0" x2="300" y2="500" stroke="#e8c547" stroke-width="1" opacity="0.20"/>
  <line x1="400" y1="0" x2="400" y2="500" stroke="#e8c547" stroke-width="1" opacity="0.20"/>
  <line x1="500" y1="0" x2="500" y2="500" stroke="#e8c547" stroke-width="1" opacity="0.20"/>
  <line x1="600" y1="0" x2="600" y2="500" stroke="#e8c547" stroke-width="1" opacity="0.20"/>
  <line x1="700" y1="0" x2="700" y2="500" stroke="#e8c547" stroke-width="1" opacity="0.20"/>
  <!-- Large brake disc -->
  <g transform="translate(470,255)" opacity="0.58">
    <circle cx="0" cy="0" r="200" fill="#e8c547"/>
    <circle cx="0" cy="0" r="176" fill="#111"/>
    <circle cx="0" cy="0" r="160" fill="#e8c547"/>
    <circle cx="0" cy="0" r="94" fill="#111"/>
    <rect x="-9" y="-160" width="18" height="68" rx="5" fill="#111"/>
    <rect x="-9" y="-160" width="18" height="68" rx="5" fill="#111" transform="rotate(30)"/>
    <rect x="-9" y="-160" width="18" height="68" rx="5" fill="#111" transform="rotate(60)"/>
    <rect x="-9" y="-160" width="18" height="68" rx="5" fill="#111" transform="rotate(90)"/>
    <rect x="-9" y="-160" width="18" height="68" rx="5" fill="#111" transform="rotate(120)"/>
    <rect x="-9" y="-160" width="18" height="68" rx="5" fill="#111" transform="rotate(150)"/>
    <rect x="-9" y="-160" width="18" height="68" rx="5" fill="#111" transform="rotate(180)"/>
    <rect x="-9" y="-160" width="18" height="68" rx="5" fill="#111" transform="rotate(210)"/>
    <rect x="-9" y="-160" width="18" height="68" rx="5" fill="#111" transform="rotate(240)"/>
    <rect x="-9" y="-160" width="18" height="68" rx="5" fill="#111" transform="rotate(270)"/>
    <rect x="-9" y="-160" width="18" height="68" rx="5" fill="#111" transform="rotate(300)"/>
    <rect x="-9" y="-160" width="18" height="68" rx="5" fill="#111" transform="rotate(330)"/>
    <circle cx="0" cy="0" r="40" fill="#e8c547"/>
    <circle cx="0" cy="0" r="20" fill="#111"/>
    <circle cx="0" cy="-60" r="10" fill="#111"/>
    <circle cx="0" cy="-60" r="10" fill="#111" transform="rotate(72)"/>
    <circle cx="0" cy="-60" r="10" fill="#111" transform="rotate(144)"/>
    <circle cx="0" cy="-60" r="10" fill="#111" transform="rotate(216)"/>
    <circle cx="0" cy="-60" r="10" fill="#111" transform="rotate(288)"/>
  </g>
  <!-- Small disc top-left -->
  <g transform="translate(90,90)" opacity="0.45">
    <circle cx="0" cy="0" r="72" fill="#e8c547"/>
    <circle cx="0" cy="0" r="58" fill="#111"/>
    <circle cx="0" cy="0" r="48" fill="#e8c547"/>
    <circle cx="0" cy="0" r="28" fill="#111"/>
    <circle cx="0" cy="0" r="12" fill="#e8c547"/>
    <circle cx="0" cy="0" r="5" fill="#111"/>
  </g>
  <!-- Caliper bottom-left -->
  <g transform="translate(130,400)" opacity="0.50">
    <rect x="-70" y="-44" width="140" height="88" rx="14" fill="#e8c547"/>
    <rect x="-50" y="-28" width="100" height="56" rx="7" fill="#111"/>
    <rect x="-24" y="-58" width="18" height="24" rx="4" fill="#e8c547"/>
    <rect x="6" y="-58" width="18" height="24" rx="4" fill="#e8c547"/>
    <rect x="-24" y="34" width="18" height="24" rx="4" fill="#e8c547"/>
    <rect x="6" y="34" width="18" height="24" rx="4" fill="#e8c547"/>
  </g>
  <!-- Left accent bar -->
  <rect x="0" y="0" width="5" height="500" fill="#e8c547" opacity="0.75"/>
</svg>
