<svg xmlns="http://www.w3.org/2000/svg" width="800" height="500" viewBox="0 0 800 500" fill="none">
  <line x1="0" y1="100" x2="800" y2="100" stroke="#e8c547" stroke-width="1" opacity="0.20"/>
  <line x1="0" y1="200" x2="800" y2="200" stroke="#e8c547" stroke-width="1" opacity="0.20"/>
  <line x1="0" y1="300" x2="800" y2="300" stroke="#e8c547" stroke-width="1" opacity="0.20"/>
  <line x1="0" y1="400" x2="800" y2="400" stroke="#e8c547" stroke-width="1" opacity="0.20"/>
  <line x1="100" y1="0" x2="100" y2="500" stroke="#e8c547" stroke-width="1" opacity="0.20"/>
  <line x1="200" y1="0" x2="200" y2="500" stroke="#e8c547" stroke-width="1" opacity="0.20"/>
  <line x1="300" y1="0" x2="300" y2="500" stroke="#e8c547" stroke-width="1" opacity="0.20"/>
  <line x1="400" y1="0" x2="400" y2="500" stroke="#e8c547" stroke-width="1" opacity="0.20"/>
  <line x1="500" y1="0" x2="500" y2="500" stroke="#e8c547" stroke-width="1" opacity="0.20"/>
  <line x1="600" y1="0" x2="600" y2="500" stroke="#e8c547" stroke-width="1" opacity="0.20"/>
  <line x1="700" y1="0" x2="700" y2="500" stroke="#e8c547" stroke-width="1" opacity="0.20"/>
  <!-- Circuit traces -->
  <g opacity="0.45" stroke="#e8c547" stroke-width="2.5" fill="none">
    <line x1="100" y1="160" x2="320" y2="160"/>
    <line x1="320" y1="160" x2="320" y2="210"/>
    <line x1="320" y1="210" x2="520" y2="210"/>
    <line x1="520" y1="210" x2="520" y2="160"/>
    <line x1="520" y1="160" x2="720" y2="160"/>
    <line x1="720" y1="160" x2="720" y2="360"/>
    <line x1="720" y1="360" x2="520" y2="360"/>
    <line x1="520" y1="360" x2="520" y2="310"/>
    <line x1="520" y1="310" x2="180" y2="310"/>
    <line x1="180" y1="310" x2="180" y2="360"/>
    <line x1="180" y1="360" x2="100" y2="360"/>
    <line x1="100" y1="360" x2="100" y2="160"/>
    <line x1="320" y1="160" x2="320" y2="80"/>
    <line x1="320" y1="80" x2="480" y2="80"/>
    <line x1="480" y1="80" x2="480" y2="160"/>
    <line x1="180" y1="310" x2="180" y2="430"/>
    <line x1="180" y1="430" x2="620" y2="430"/>
    <line x1="620" y1="430" x2="620" y2="360"/>
  </g>
  <!-- Solder pads -->
  <g fill="#e8c547" opacity="0.55">
    <circle cx="100" cy="160" r="9"/>
    <circle cx="320" cy="160" r="9"/>
    <circle cx="520" cy="160" r="9"/>
    <circle cx="720" cy="160" r="9"/>
    <circle cx="720" cy="360" r="9"/>
    <circle cx="520" cy="360" r="9"/>
    <circle cx="180" cy="360" r="9"/>
    <circle cx="100" cy="360" r="9"/>
    <circle cx="320" cy="80" r="8"/>
    <circle cx="480" cy="80" r="8"/>
    <circle cx="180" cy="430" r="8"/>
    <circle cx="620" cy="430" r="8"/>
  </g>
  <!-- OBD monitor -->
  <g transform="translate(420,255)" opacity="0.55">
    <rect x="-145" y="-100" width="290" height="200" rx="14" fill="#e8c547"/>
    <rect x="-130" y="-86" width="260" height="170" rx="8" fill="#111"/>
    <rect x="-108" y="-66" width="180" height="9" rx="3" fill="#e8c547"/>
    <rect x="-108" y="-48" width="136" height="7" rx="3" fill="#e8c547" opacity="0.7"/>
    <rect x="-108" y="-32" width="110" height="7" rx="3" fill="#e8c547" opacity="0.7"/>
    <path d="M-55,50 A65,65 0 0,1 55,50" stroke="#e8c547" stroke-width="8" fill="none"/>
    <line x1="0" y1="50" x2="36" y2="-4" stroke="#e8c547" stroke-width="4"/>
    <circle cx="0" cy="50" r="7" fill="#e8c547"/>
    <line x1="-55" y1="50" x2="-62" y2="42" stroke="#e8c547" stroke-width="3"/>
    <line x1="0" y1="-15" x2="0" y2="-24" stroke="#e8c547" stroke-width="3"/>
    <line x1="55" y1="50" x2="62" y2="42" stroke="#e8c547" stroke-width="3"/>
    <rect x="-18" y="100" width="36" height="28" rx="3" fill="#e8c547"/>
    <rect x="-48" y="126" width="96" height="12" rx="5" fill="#e8c547"/>
  </g>
  <!-- Chip top-left -->
  <g transform="translate(130,100)" opacity="0.50">
    <rect x="-40" y="-28" width="80" height="56" rx="5" fill="#e8c547"/>
    <rect x="-30" y="-20" width="60" height="40" rx="3" fill="#111"/>
    <rect x="-56" y="-20" width="18" height="8" rx="2" fill="#e8c547"/>
    <rect x="-56" y="-6" width="18" height="8" rx="2" fill="#e8c547"/>
    <rect x="-56" y="8" width="18" height="8" rx="2" fill="#e8c547"/>
    <rect x="38" y="-20" width="18" height="8" rx="2" fill="#e8c547"/>
    <rect x="38" y="-6" width="18" height="8" rx="2" fill="#e8c547"/>
    <rect x="38" y="8" width="18" height="8" rx="2" fill="#e8c547"/>
    <rect x="-20" y="-44" width="8" height="18" rx="2" fill="#e8c547"/>
    <rect x="-6" y="-44" width="8" height="18" rx="2" fill="#e8c547"/>
    <rect x="8" y="-44" width="8" height="18" rx="2" fill="#e8c547"/>
    <rect x="-20" y="26" width="8" height="18" rx="2" fill="#e8c547"/>
    <rect x="-6" y="26" width="8" height="18" rx="2" fill="#e8c547"/>
    <rect x="8" y="26" width="8" height="18" rx="2" fill="#e8c547"/>
  </g>
  <!-- Signal waves right -->
  <g opacity="0.40" stroke="#e8c547" stroke-width="3" fill="none">
    <path d="M680,210 Q700,170 720,210 Q740,250 760,210"/>
    <path d="M658,230 Q678,165 698,230 Q718,295 738,230 Q758,165 778,230"/>
    <path d="M670,260 Q700,185 730,260 Q760,335 780,260"/>
  </g>
  <!-- Left accent bar -->
  <rect x="0" y="0" width="5" height="500" fill="#e8c547" opacity="0.75"/>
</svg>
