<svg xmlns="http://www.w3.org/2000/svg" width="800" height="500" viewBox="0 0 800 500" fill="none">
  <line x1="0" y1="100" x2="800" y2="100" stroke="#e8c547" stroke-width="1" opacity="0.20"/>
  <line x1="0" y1="200" x2="800" y2="200" stroke="#e8c547" stroke-width="1" opacity="0.20"/>
  <line x1="0" y1="300" x2="800" y2="300" stroke="#e8c547" stroke-width="1" opacity="0.20"/>
  <line x1="0" y1="400" x2="800" y2="400" stroke="#e8c547" stroke-width="1" opacity="0.20"/>
  <line x1="100" y1="0" x2="100" y2="500" stroke="#e8c547" stroke-width="1" opacity="0.20"/>
  <line x1="200" y1="0" x2="200" y2="500" stroke="#e8c547" stroke-width="1" opacity="0.20"/>
  <line x1="300" y1="0" x2="300" y2="500" stroke="#e8c547" stroke-width="1" opacity="0.20"/>
  <line x1="400" y1="0" x2="400" y2="500" stroke="#e8c547" stroke-width="1" opacity="0.20"/>
  <line x1="500" y1="0" x2="500" y2="500" stroke="#e8c547" stroke-width="1" opacity="0.20"/>
  <line x1="600" y1="0" x2="600" y2="500" stroke="#e8c547" stroke-width="1" opacity="0.20"/>
  <line x1="700" y1="0" x2="700" y2="500" stroke="#e8c547" stroke-width="1" opacity="0.20"/>
  <!-- Motorhome -->
  <g transform="translate(420,295)" opacity="0.60">
    <rect x="-300" y="-110" width="600" height="140" rx="10" fill="#e8c547"/>
    <rect x="-300" y="-190" width="200" height="88" rx="22" fill="#e8c547"/>
    <rect x="-285" y="-176" width="166" height="62" rx="12" fill="#111"/>
    <rect x="-210" y="-88" width="56" height="44" rx="5" fill="#111"/>
    <rect x="-134" y="-88" width="56" height="44" rx="5" fill="#111"/>
    <rect x="-58" y="-88" width="56" height="44" rx="5" fill="#111"/>
    <rect x="18" y="-88" width="56" height="44" rx="5" fill="#111"/>
    <rect x="94" y="-88" width="56" height="44" rx="5" fill="#111"/>
    <rect x="170" y="-88" width="56" height="44" rx="5" fill="#111"/>
    <rect x="-60" y="-156" width="360" height="52" rx="9" fill="#e8c547"/>
    <rect x="228" y="-106" width="52" height="100" rx="5" fill="#111"/>
    <rect x="-295" y="-56" width="32" height="20" rx="5" fill="#111"/>
    <rect x="263" y="-56" width="32" height="20" rx="5" fill="#111"/>
    <circle cx="-210" cy="66" r="58" fill="#e8c547"/>
    <circle cx="-210" cy="66" r="36" fill="#111"/>
    <circle cx="-210" cy="66" r="14" fill="#e8c547"/>
    <circle cx="188" cy="66" r="58" fill="#e8c547"/>
    <circle cx="188" cy="66" r="36" fill="#111"/>
    <circle cx="188" cy="66" r="14" fill="#e8c547"/>
  </g>
  <!-- Road line -->
  <rect x="0" y="462" width="800" height="6" fill="#e8c547" opacity="0.30"/>
  <!-- Mountains -->
  <polygon points="0,380 160,180 320,380" fill="#e8c547" opacity="0.18"/>
  <polygon points="220,380 420,120 620,380" fill="#e8c547" opacity="0.18"/>
  <polygon points="500,380 680,190 800,380" fill="#e8c547" opacity="0.18"/>
  <!-- Left accent bar -->
  <rect x="0" y="0" width="5" height="500" fill="#e8c547" opacity="0.75"/>
</svg>
